<svg width="800" height="600" xmlns="http://www.w3.org/2000/svg">
  <!-- Gold wave pattern for certificate background -->
  <defs>
    <linearGradient id="goldGradient" x1="0%" y1="0%" x2="100%" y2="100%">
      <stop offset="0%" stop-color="#f9d423" stop-opacity="0.3" />
      <stop offset="100%" stop-color="#e6b422" stop-opacity="0.3" />
    </linearGradient>
  </defs>
  
  <!-- Background -->
  <rect width="100%" height="100%" fill="white" />
  
  <!-- Wave patterns -->
  <path d="M0,50 C150,100 250,0 400,50 C550,100 650,0 800,50 L800,0 L0,0 Z" fill="url(#goldGradient)" />
  <path d="M0,150 C150,200 250,100 400,150 C550,200 650,100 800,150 L800,100 L0,100 Z" fill="url(#goldGradient)" opacity="0.7" />
  <path d="M0,250 C150,300 250,200 400,250 C550,300 650,200 800,250 L800,200 L0,200 Z" fill="url(#goldGradient)" opacity="0.5" />
  
  <!-- Bottom wave patterns -->
  <path d="M0,550 C150,500 250,600 400,550 C550,500 650,600 800,550 L800,600 L0,600 Z" fill="url(#goldGradient)" />
  <path d="M0,450 C150,400 250,500 400,450 C550,400 650,500 800,450 L800,500 L0,500 Z" fill="url(#goldGradient)" opacity="0.7" />
  <path d="M0,350 C150,300 250,400 400,350 C550,300 650,400 800,350 L800,400 L0,400 Z" fill="url(#goldGradient)" opacity="0.5" />
  
  <!-- Corner decorations -->
  <circle cx="50" cy="50" r="30" fill="none" stroke="#e6b422" stroke-width="1" opacity="0.5" />
  <circle cx="750" cy="50" r="30" fill="none" stroke="#e6b422" stroke-width="1" opacity="0.5" />
  <circle cx="50" cy="550" r="30" fill="none" stroke="#e6b422" stroke-width="1" opacity="0.5" />
  <circle cx="750" cy="550" r="30" fill="none" stroke="#e6b422" stroke-width="1" opacity="0.5" />
  
  <!-- Subtle grid pattern -->
  <pattern id="smallGrid" width="10" height="10" patternUnits="userSpaceOnUse">
    <path d="M 10 0 L 0 0 0 10" fill="none" stroke="#e6b422" stroke-width="0.5" opacity="0.1" />
  </pattern>
  <rect width="100%" height="100%" fill="url(#smallGrid)" />
</svg>